<?xml version="1.0" encoding="UTF-8"?>
<svg id="Layer_2" data-name="Layer 2" xmlns="http://www.w3.org/2000/svg" viewBox="0 0 1089.35 223.07">
  <defs>
    <style>
      .cls-1 {
        fill: #fff;
      }
    </style>
  </defs>
  <g id="Layer_3" data-name="Layer 3">
    <g>
      <path class="cls-1" d="M221.62,100h-20.09c-.77-6.94-2.32-13.64-4.58-20-2.51-7.12-5.9-13.83-10.03-20-1.51-2.27-3.13-4.46-4.84-6.57-1.99-2.47-4.11-4.82-6.35-7.06-2.25-2.25-4.61-4.37-7.08-6.37-2.11-1.71-4.3-3.33-6.57-4.84-6.17-4.14-12.88-7.52-20-10.03-6.37-2.26-13.06-3.81-20-4.58-3.28-.36-6.62-.55-10-.55s-6.72,.19-10,.55c-6.94,.77-13.64,2.32-20,4.58-7.12,2.51-13.83,5.89-20,10.03-2.27,1.51-4.46,3.13-6.57,4.84-2.47,2-4.84,4.12-7.08,6.37-2.24,2.24-4.36,4.59-6.35,7.06-1.71,2.11-3.33,4.3-4.84,6.57-4.14,6.17-7.52,12.88-10.03,20-2.26,6.36-3.81,13.06-4.58,20H2.54c.61-6.87,1.86-13.55,3.68-20,1.97-6.97,4.61-13.66,7.85-20,2.36-4.62,5.04-9.05,8.01-13.26,1.63-2.32,3.35-4.56,5.15-6.74,2.23-2.7,4.58-5.29,7.06-7.77,2.48-2.48,5.08-4.85,7.79-7.08,2.18-1.8,4.42-3.52,6.74-5.15,4.21-2.97,8.64-5.65,13.26-8.01,6.34-3.24,13.03-5.88,20-7.85,6.45-1.82,13.13-3.07,20-3.68,3.29-.31,6.63-.46,10-.46s6.71,.15,10,.46c6.87,.61,13.55,1.86,20,3.68,6.97,1.97,13.66,4.61,20,7.85,4.62,2.36,9.05,5.04,13.26,8.01,2.32,1.63,4.56,3.35,6.74,5.15,2.71,2.23,5.31,4.6,7.79,7.08,2.48,2.48,4.83,5.07,7.06,7.77,1.8,2.18,3.52,4.42,5.15,6.74,2.97,4.21,5.65,8.64,8.01,13.26,3.24,6.34,5.88,13.03,7.85,20,1.82,6.45,3.07,13.13,3.68,20Z"/>
      <path class="cls-1" d="M181.36,100h-20.28c-1.5-7.39-4.63-14.19-9-20-1.42-1.89-2.97-3.68-4.64-5.35-1.67-1.67-3.46-3.23-5.36-4.65-5.81-4.37-12.61-7.5-20-8.99-3.23-.67-6.57-1.01-10-1.01s-6.77,.34-10,1c-7.39,1.5-14.19,4.63-20,8.99-1.9,1.43-3.69,2.99-5.37,4.66-1.67,1.67-3.22,3.46-4.64,5.35-4.36,5.81-7.49,12.61-8.99,20h-20.28c1-7.06,3.06-13.78,6.02-20,3.35-7.06,7.85-13.47,13.26-18.99,.16-.17,.33-.34,.49-.5,.17-.17,.35-.34,.52-.51,5.52-5.41,11.93-9.91,18.99-13.26,6.22-2.96,12.94-5.02,20-6.02,3.27-.48,6.6-.72,10-.72s6.73,.24,10,.72c7.06,1,13.78,3.06,20,6.02,7.06,3.35,13.47,7.85,18.99,13.26,.17,.17,.35,.34,.52,.51,.16,.16,.33,.33,.49,.5,5.41,5.52,9.91,11.93,13.26,18.99,2.96,6.22,5.02,12.94,6.02,20Z"/>
      <path class="cls-1" d="M140.36,100h-56.56c1.5-4.26,3.93-8.07,7.06-11.2,3.13-3.14,6.95-5.58,11.22-7.08,3.13-1.12,6.49-1.72,10-1.72s6.87,.6,10,1.72c4.27,1.5,8.09,3.94,11.22,7.08,3.13,3.13,5.56,6.94,7.06,11.2Z"/>
      <path class="cls-1" d="M192.09,189.46c-20.34,20.74-48.68,33.6-80.02,33.6s-60.16-13.1-80.53-34.15c38.23-.16,53.84,21.34,88.91,19.63,30.68-1.5,37.74-18.88,68.47-19.13,1.07-.01,2.13,0,3.17,.05Z"/>
      <path class="cls-1" d="M217.61,152.81c-2.52,7.03-5.7,13.72-9.51,20.01-5.97-1.33-12.39-2.13-19.18-2.07-30.73,.26-37.79,17.64-68.47,19.14-35.82,1.74-51.34-20.72-91.39-19.6-4.84,.14-9.43,.6-13.73,1.3-3.81-6.5-7-13.44-9.45-20.69,6.83-1.75,14.6-3.02,23.18-3.27,40.05-1.13,55.57,21.34,91.39,19.59,30.68-1.49,37.74-18.87,68.47-19.13,10.56-.09,20.22,1.88,28.68,4.73Z"/>
      <path class="cls-1" d="M224.15,121c0,5.81-.44,11.52-1.29,17.09-9.63-3.85-21.13-6.76-33.94-6.66-30.73,.25-37.79,17.64-68.47,19.13-35.82,1.75-51.34-20.71-91.39-19.59-10.72,.31-20.17,2.21-28.11,4.65-.63-4.78-.95-9.67-.95-14.62,0-2.63,.09-5.25,.28-7.83,8.08-2.54,17.76-4.54,28.78-4.85,40.05-1.14,55.57,21.33,91.39,19.59,30.68-1.49,37.74-18.88,68.47-19.13,13.33-.11,25.23,3.05,35.11,7.13,.09,1.7,.13,3.39,.13,5.1Z"/>
    </g>
    <g>
      <path class="cls-1" d="M526.53,62.6c-13.72,0-20.58-6.47-20.58-19.41s6.86-18.78,20.58-18.78,20.45,6.26,20.45,18.78-6.82,19.41-20.45,19.41Z"/>
      <path class="cls-1" d="M1068.9,62.74c-13.72,0-20.58-6.47-20.58-19.41s6.86-18.78,20.58-18.78,20.45,6.26,20.45,18.78-6.82,19.41-20.45,19.41Z"/>
      <rect class="cls-1" x="509.36" y="70.54" width="34.22" height="128.46"/>
      <path class="cls-1" d="M488.6,199h-34.22V88.94l-36.99,61.77c-5.3,10.26-12.12,15.38-20.45,15.38h-9.47c-8.33,0-15.19-5.13-20.58-15.38l-36.87-61.77v110.06h-34.22V24.4h33.84l60.98,111.32c.59,1.01,1.33,1.51,2.21,1.51s1.62-.5,2.21-1.51l59.72-111.32h33.84V199Z"/>
      <path class="cls-1" d="M685.76,199h-109.33c-6.63,0-12-5.37-12-12v-9.12c0-3.19,1.27-6.24,3.52-8.49l70.47-70.36h-73.99v-28.37h109.33c6.63,0,12,5.37,12,12v9.12c0,3.19-1.27,6.24-3.52,8.49l-70.47,70.36h73.99v28.37Z"/>
      <path class="cls-1" d="M767.73,199c-19.11,0-34.07-3.97-44.88-11.91-10.82-7.94-16.22-21.37-16.22-40.28V69.28h34.22v76.65c0,8.57,1.72,14.81,5.18,18.72,3.45,3.91,10.73,5.86,21.84,5.86s18.26-1.95,21.72-5.86c3.45-3.91,5.18-10.15,5.18-18.72V69.28h34.22v77.53c0,18.91-5.39,32.34-16.16,40.28-10.77,7.94-25.8,11.91-45.07,11.91Z"/>
      <path class="cls-1" d="M1032.77,199h-34.22V118.57c0-9.08-1.62-14.83-4.86-17.27-3.24-2.44-8.27-3.66-15.09-3.66s-11.89,1.39-15.21,4.16c-3.33,2.77-4.99,8.36-4.99,16.77v80.43h-34.22V118.57c0-8.4-1.66-13.99-4.99-16.77-3.33-2.77-8.4-4.16-15.21-4.16s-11.85,1.22-15.09,3.66c-3.24,2.44-4.86,8.19-4.86,17.27v80.43h-34.22V117.81c0-18.99,5.01-31.83,15.02-38.51,10.02-6.68,22.51-10.02,37.5-10.02,18.94,0,31.94,5.55,39.01,16.64,7.07-11.09,20.12-16.64,39.14-16.64,14.9,0,27.33,3.34,37.31,10.02,9.97,6.68,14.96,19.52,14.96,38.51v81.19Z"/>
      <rect class="cls-1" x="1051.73" y="70.54" width="34.22" height="128.46"/>
    </g>
  </g>
</svg>